<?xml version="1.0" standalone="no"?>
<!DOCTYPE svg PUBLIC "-//W3C//DTD SVG 20010904//EN"
 "http://www.w3.org/TR/2001/REC-SVG-20010904/DTD/svg10.dtd">
<svg version="1.0" xmlns="http://www.w3.org/2000/svg"
 width="500.000000pt" height="500.000000pt" viewBox="0 0 500.000000 500.000000"
 preserveAspectRatio="xMidYMid meet">
<metadata>
Created by potrace 1.14, written by Peter Selinger 2001-2017
</metadata>
<g transform="translate(0.000000,500.000000) scale(0.100000,-0.100000)"
fill="#000000" stroke="none">
<path d="M2541 4974 c-19 -25 -25 -26 -74 -21 -28 4 -90 13 -136 22 -47 8
-100 12 -119 9 -20 -4 -70 -33 -116 -68 -45 -34 -109 -81 -143 -104 -35 -24
-63 -45 -63 -49 0 -3 16 -3 35 0 20 3 35 2 35 -4 0 -20 -138 -134 -221 -182
-53 -31 -142 -37 -175 -12 -32 24 -46 19 -32 -11 15 -32 85 -69 166 -85 34 -7
62 -17 62 -21 0 -10 -78 -47 -100 -48 -8 0 -41 16 -72 36 -71 43 -97 42 -121
-8 -25 -50 -26 -158 -2 -194 38 -58 -1 -68 -115 -29 -40 14 -76 22 -79 19 -13
-13 110 -114 159 -131 28 -10 50 -21 50 -25 0 -4 -14 -15 -32 -24 -43 -22
-114 -13 -180 23 -66 36 -91 74 -84 129 4 34 0 50 -23 86 -40 63 -48 65 -61
18 -21 -79 10 -160 97 -251 30 -32 52 -63 48 -68 -10 -17 -98 -13 -123 4 -12
9 -28 39 -37 70 -9 29 -30 72 -47 96 l-31 43 -27 -31 c-15 -17 -42 -69 -60
-116 -25 -65 -38 -87 -58 -97 -23 -10 -29 -9 -43 9 -21 26 -42 26 -94 2 -39
-17 -105 -81 -105 -101 0 -6 -5 -9 -11 -8 -18 4 -32 -61 -26 -120 10 -101 60
-173 197 -291 19 -16 32 -32 28 -36 -9 -9 -99 21 -172 57 -47 24 -61 27 -67
16 -13 -20 -14 -78 -3 -145 l5 -32 -40 14 c-21 7 -42 11 -45 8 -3 -3 3 -22 14
-43 30 -58 119 -133 204 -170 79 -35 84 -50 16 -50 -50 0 -102 16 -145 46 -29
19 -40 22 -51 13 -19 -16 5 -55 79 -125 31 -31 57 -57 57 -59 0 -2 -21 2 -47
10 -55 17 -89 19 -97 6 -3 -5 12 -31 34 -57 22 -27 40 -58 40 -70 0 -12 18
-37 41 -58 36 -34 39 -39 23 -50 -40 -30 15 -154 91 -206 24 -17 75 -38 112
-47 37 -10 70 -18 72 -20 2 -1 10 -33 17 -70 38 -182 163 -324 353 -398 l68
-27 39 25 c21 13 58 45 82 71 23 25 46 46 50 46 10 0 48 -59 62 -95 7 -16 28
-82 47 -145 19 -63 59 -173 88 -245 29 -71 67 -175 84 -231 57 -185 183 -410
276 -492 53 -47 56 -60 64 -367 l6 -240 30 -53 c35 -64 125 -150 187 -180 147
-69 308 -39 433 79 28 27 65 72 81 101 l29 53 6 240 c8 307 11 320 64 367 93
82 219 307 276 492 17 56 55 160 84 231 29 72 70 186 91 255 42 142 83 230
107 230 4 0 26 -21 49 -46 24 -26 60 -58 82 -71 l38 -25 60 23 c83 31 195 106
246 165 87 101 132 237 132 403 l0 88 40 13 c58 19 115 72 146 136 22 45 26
63 20 101 l-6 46 69 66 c39 37 74 79 80 93 28 74 21 270 -15 430 -19 82 -41
105 -30 32 4 -27 10 -86 13 -131 6 -78 5 -83 -14 -83 -10 0 -24 5 -30 11 -18
18 -33 1 -33 -37 0 -33 -21 -56 -37 -40 -3 3 6 50 21 104 14 54 26 114 26 133
0 36 -28 101 -46 106 -6 2 -30 -26 -54 -62 -41 -59 -66 -82 -77 -71 -2 2 14
41 37 86 65 129 84 259 59 396 -11 60 -27 100 -35 91 -3 -3 0 -32 7 -65 10
-48 10 -75 0 -129 -22 -124 -143 -334 -183 -321 -20 7 -10 45 34 132 l40 80
-4 150 c-4 142 -6 154 -32 206 -38 73 -79 124 -122 151 -45 27 -54 18 -20 -21
14 -17 26 -37 26 -43 0 -19 -102 -106 -154 -132 -53 -27 -132 -33 -166 -15
-11 6 -40 43 -66 83 -106 163 -170 211 -284 212 l-65 0 -1 110 c0 92 -4 118
-23 160 -34 75 -69 115 -120 138 -25 11 -71 41 -102 68 -89 77 -231 139 -394
174 -94 20 -100 19 -124 -11z m-437 -714 c50 -17 154 -62 231 -100 77 -37 155
-73 174 -79 49 -16 98 -14 105 4 8 22 50 3 103 -45 23 -22 49 -40 57 -40 20 0
36 31 36 72 0 60 10 80 35 74 19 -5 25 0 34 24 12 35 15 35 66 14 48 -19 79
-12 107 26 16 23 30 30 54 30 18 0 36 5 39 10 34 55 200 -129 324 -360 89
-166 131 -330 131 -509 0 -142 -3 -152 -43 -140 -50 14 -66 11 -72 -14 -10
-37 11 -73 58 -100 64 -38 160 -149 207 -238 72 -138 85 -236 51 -372 -36
-140 -78 -197 -228 -308 -109 -81 -107 -77 -213 -359 -43 -113 -94 -242 -113
-287 -20 -45 -47 -126 -61 -180 -29 -108 -127 -317 -176 -373 -27 -31 -30 -32
-30 -12 0 30 44 233 76 352 45 166 173 478 295 723 22 42 37 77 35 77 -9 0
-115 -179 -164 -276 -99 -197 -153 -348 -236 -654 -84 -310 -118 -487 -136
-716 -13 -166 -30 -223 -81 -279 -56 -60 -111 -80 -224 -80 -113 0 -168 20
-224 80 -51 56 -68 113 -81 279 -18 229 -52 407 -135 711 -84 311 -139 463
-237 659 -49 97 -155 276 -164 276 -2 0 13 -35 35 -77 114 -227 228 -502 282
-680 31 -104 89 -359 89 -395 0 -22 -1 -22 -25 7 -72 87 -147 246 -184 392
-12 44 -37 119 -57 165 -20 45 -72 177 -115 293 -44 115 -91 228 -104 251 -16
27 -57 66 -112 107 -145 105 -188 165 -224 304 -34 136 -21 234 51 372 47 89
143 200 207 238 47 27 68 63 58 100 -6 25 -22 28 -72 14 -40 -12 -43 -2 -43
140 0 230 63 418 224 663 91 140 208 244 275 246 12 0 64 -14 115 -30z m-945
-1435 l52 -16 -7 -37 c-4 -20 -8 -38 -9 -40 -2 -2 -20 5 -42 16 -21 11 -55 25
-75 31 -37 12 -37 13 -22 37 19 28 32 29 103 9z m2875 -9 c15 -24 15 -25 -22
-37 -20 -6 -54 -20 -75 -31 -22 -11 -40 -18 -42 -16 -1 2 -5 20 -9 40 l-7 37
48 15 c69 21 88 19 107 -8z m-2904 -104 l55 -28 2 -64 c8 -186 95 -348 246
-457 29 -20 54 -38 56 -40 8 -6 -77 -109 -102 -122 -14 -7 -36 -11 -50 -7 -43
10 -143 84 -205 151 -168 179 -215 381 -135 568 15 36 19 38 47 33 17 -3 56
-19 86 -34z m2963 1 c43 -100 50 -226 17 -322 -43 -130 -154 -272 -272 -351
-73 -49 -101 -57 -135 -39 -25 13 -110 116 -102 122 2 2 27 20 56 40 151 109
241 275 245 455 2 59 3 64 34 82 36 23 101 48 125 49 9 1 23 -15 32 -36z"/>
<path d="M1909 3872 c-113 -98 -133 -124 -167 -214 -39 -102 -74 -220 -67
-226 8 -8 36 21 55 57 10 20 28 45 40 56 13 11 42 46 65 77 23 32 73 81 110
109 l68 50 44 -43 c25 -24 61 -74 80 -113 74 -146 155 -245 234 -285 l43 -23
16 24 c8 13 28 38 43 56 l28 32 -38 42 c-35 37 -42 40 -61 30 -12 -6 -31 -33
-42 -59 l-22 -47 -49 55 c-50 56 -119 175 -119 204 0 9 -17 35 -38 59 -70 79
-75 87 -81 124 -5 31 -14 42 -47 60 l-40 22 -55 -47z"/>
<path d="M3061 3768 c-90 -185 -214 -358 -255 -358 -7 0 -30 11 -51 25 -20 15
-40 23 -43 20 -10 -9 116 -125 136 -125 10 0 33 18 50 39 17 22 52 56 78 77
43 35 51 38 104 37 32 -1 74 -9 93 -17 33 -13 38 -22 61 -96 14 -44 26 -87 26
-94 0 -13 21 -26 40 -26 17 0 22 41 8 58 -8 9 -25 45 -38 80 -12 34 -31 74
-42 87 -23 29 -105 48 -188 43 l-59 -3 36 65 c39 71 80 120 99 120 7 0 26 -16
41 -36 15 -19 49 -46 74 -59 48 -25 59 -40 59 -80 0 -26 17 -42 30 -29 5 5 10
39 12 75 2 57 -3 75 -34 141 -40 85 -122 178 -155 178 -17 0 -33 -24 -82 -122z"/>
<path d="M2542 3821 c2 -5 21 -43 43 -84 l39 -75 -14 -73 c-22 -113 -18 -200
7 -175 4 4 10 33 14 64 4 31 10 81 14 109 6 40 4 64 -10 100 -21 57 -73 143
-87 143 -5 0 -8 -4 -6 -9z"/>
<path d="M1923 3510 c-59 -14 -78 -35 -108 -115 -15 -42 -34 -82 -42 -90 -11
-11 -11 -19 -3 -35 23 -43 51 -19 65 55 3 22 16 61 27 87 17 40 26 49 57 57
122 31 147 23 244 -74 53 -53 67 -63 67 -47 0 22 -109 156 -136 166 -21 8
-131 6 -171 -4z"/>
<path d="M1955 3356 c-9 -13 -20 -38 -25 -55 -7 -26 -5 -33 13 -46 64 -44 187
17 156 77 -25 48 -118 63 -144 24z"/>
<path d="M3022 3365 c-83 -36 -36 -125 66 -125 72 0 88 45 40 113 -22 31 -54
35 -106 12z"/>
<path d="M2287 3058 c-66 -49 -95 -137 -61 -186 14 -20 23 -22 83 -20 37 1 72
-2 79 -6 7 -4 27 -31 46 -59 48 -75 67 -89 125 -90 65 -2 100 23 125 91 l19
52 49 0 c41 0 54 5 78 29 42 41 49 79 20 103 -32 26 -86 24 -101 -4 -6 -13
-34 -46 -60 -75 -40 -42 -49 -59 -49 -87 0 -44 -29 -76 -67 -76 -41 0 -51 10
-92 85 -20 38 -49 77 -63 88 -25 19 -32 19 -82 8 -31 -7 -60 -10 -66 -6 -29
18 6 96 59 136 17 13 31 26 31 31 0 16 -45 7 -73 -14z"/>
<path d="M2101 2954 c-23 -20 -66 -66 -95 -103 -41 -51 -70 -75 -127 -106 -54
-29 -74 -46 -74 -60 0 -56 123 19 263 161 56 58 102 108 102 113 0 5 -6 14
-13 20 -11 8 -24 2 -56 -25z"/>
<path d="M2920 2970 c-10 -18 -6 -25 26 -53 20 -18 46 -43 58 -57 54 -65 138
-138 193 -168 72 -38 85 -40 81 -9 -2 15 -20 31 -58 52 -53 30 -93 65 -198
178 -69 73 -88 84 -102 57z"/>
<path d="M1509 2685 c-38 -21 -62 -63 -63 -112 -1 -48 22 -80 50 -69 13 5 15
9 6 18 -7 7 -12 29 -12 49 0 50 44 89 100 89 45 0 59 14 31 29 -27 15 -81 13
-112 -4z"/>
<path d="M3467 2689 c-26 -15 -11 -29 33 -29 56 0 100 -39 100 -89 0 -20 -5
-42 -12 -49 -9 -9 -7 -13 6 -18 47 -18 69 82 31 139 -32 50 -112 73 -158 46z"/>
<path d="M1605 2540 c-9 -15 19 -62 104 -173 121 -160 158 -219 227 -360 104
-218 259 -721 329 -1077 31 -156 68 -236 131 -284 89 -68 209 -68 298 0 63 48
100 128 131 284 37 186 138 561 204 760 103 304 167 431 324 639 139 183 157
221 104 221 -27 0 -56 -19 -135 -87 -34 -28 -71 -54 -82 -58 -15 -5 -57 10
-138 49 -65 31 -129 56 -142 56 -14 0 -50 8 -80 17 -44 13 -109 17 -320 18
-235 3 -272 1 -331 -16 -36 -10 -79 -19 -95 -19 -16 0 -81 -25 -146 -56 -81
-39 -123 -54 -138 -49 -11 4 -48 30 -82 58 -33 29 -72 60 -87 69 -29 20 -66
23 -76 8z m1253 -208 c80 -49 130 -64 185 -55 47 7 47 -1 -2 -82 -21 -36 -48
-89 -61 -119 -15 -37 -28 -56 -44 -60 -137 -34 -645 -34 -782 0 -16 4 -29 23
-44 60 -13 30 -40 83 -61 119 -49 81 -49 89 -1 82 53 -9 105 6 174 48 33 21
71 41 86 45 15 4 128 7 252 6 l226 -1 72 -43z m-155 -808 c78 -7 85 -14 69
-77 -6 -23 -21 -91 -32 -152 -37 -193 -100 -285 -195 -285 -95 0 -158 92 -195
285 -11 61 -26 131 -32 158 -8 32 -9 50 -1 58 12 12 187 28 263 23 30 -2 86
-6 123 -10z"/>
</g>
</svg>
